<svg width="128" height="128" viewBox="0 0 128 128" xmlns="http://www.w3.org/2000/svg">
  <!-- Background circle -->
  <circle cx="64" cy="64" r="60" fill="#2563eb" opacity="0.1"/>

  <!-- Network signal waves -->
  <g stroke="#2563eb" stroke-width="3" fill="none">
    <path d="M 30 64 Q 40 50, 50 64 T 70 64 T 90 64 T 110 64" opacity="0.8"/>
    <path d="M 25 74 Q 37 60, 50 74 T 75 74 T 100 74" opacity="0.6"/>
    <path d="M 20 84 Q 35 70, 50 84 T 80 84 T 110 84" opacity="0.4"/>
  </g>

  <!-- Magnifying glass -->
  <g transform="translate(55, 45)">
    <!-- Glass circle -->
    <circle cx="20" cy="20" r="18" fill="none" stroke="#1e40af" stroke-width="4"/>
    <circle cx="20" cy="20" r="14" fill="#93c5fd" opacity="0.3"/>

    <!-- Handle -->
    <line x1="33" y1="33" x2="45" y2="45" stroke="#1e40af" stroke-width="5" stroke-linecap="round"/>

    <!-- Highlight -->
    <ellipse cx="15" cy="15" rx="6" ry="8" fill="white" opacity="0.6" transform="rotate(-45 15 15)"/>
  </g>

  <!-- Data points -->
  <circle cx="45" cy="40" r="2" fill="#2563eb"/>
  <circle cx="70" cy="35" r="2" fill="#2563eb"/>
  <circle cx="90" cy="48" r="2" fill="#2563eb"/>
</svg>
